<svg width="84" height="84" viewBox="0 0 84 84" fill="none" xmlns="http://www.w3.org/2000/svg">
<g clip-path="url(#clip0_84_2168)">
<path d="M42.2017 52.8437V41.777" stroke="#3B38C0" stroke-width="4.44444" stroke-miterlimit="10" stroke-linecap="round" stroke-linejoin="round"/>
<path d="M52.386 58.8946L42.7188 53.5082" stroke="#3B38C0" stroke-width="4.44444" stroke-miterlimit="10" stroke-linecap="round" stroke-linejoin="round"/>
<path d="M32.0244 58.8946L41.6916 53.5082" stroke="#3B38C0" stroke-width="4.44444" stroke-miterlimit="10" stroke-linecap="round" stroke-linejoin="round"/>
<path d="M45.4858 23.9327V23.5849C48.1462 22.3678 50.0317 19.8451 50.4421 16.9562C51.5636 16.5495 52.3545 15.466 52.3545 14.2393C52.3545 13.1832 51.784 12.2378 50.9011 11.7335C50.9929 11.4458 51.0683 11.1558 51.1265 10.8662C51.5962 8.53632 51.0612 6.15529 49.6195 4.16165C48.2015 2.20011 46.0699 0.847472 43.6175 0.352852C42.9579 0.219852 42.2855 0.152466 41.619 0.152466C39.5156 0.152466 37.4634 0.830859 35.8404 2.06249C34.1689 3.33061 33.0259 5.13231 32.622 7.13599C32.3157 8.65504 32.4408 10.2222 32.9822 11.6926C32.0645 12.1858 31.4568 13.1555 31.4568 14.2396C31.4568 15.4823 32.2593 16.5695 33.3975 16.9673C33.8191 19.9248 35.766 22.4714 38.5137 23.6583V23.933C32.8067 25.2257 28.8716 29.4945 28.8716 34.4829V35.8152H33.8386V35.8128H34.3902V35.8152H55.1283V34.4829C55.1283 29.4943 51.1932 25.2257 45.4858 23.9327ZM41.6191 2.81727C42.1084 2.81727 42.6039 2.86702 43.0911 2.96493C44.8842 3.32659 46.4358 4.30603 47.4602 5.72283C48.4154 7.04373 48.8002 8.59708 48.5542 10.1214C47.2429 9.50955 45.5197 8.86266 43.7067 8.61435C40.2991 8.14838 40.2446 7.99013 40.0414 7.40115L39.3909 5.51843L37.8943 6.84251C37.735 6.98274 36.5293 8.04263 35.1378 9.19544C35.0995 8.68411 35.1316 8.17143 35.2343 7.6623C35.8001 4.85488 38.4854 2.81727 41.6191 2.81727ZM35.9734 11.9554C36.908 11.1994 37.8311 10.4186 38.4991 9.84574C39.4247 10.6808 40.8684 10.9157 43.3453 11.2545C45.0254 11.4843 46.6731 12.1571 47.8648 12.7481V15.7507C47.8648 19.0291 45.1978 21.6966 41.9194 21.6966C38.6407 21.6966 35.9735 19.0291 35.9735 15.7507V11.9554H35.9734ZM41.1783 24.3283C41.7294 24.3768 42.277 24.371 42.8214 24.3137V25.1363L41.9976 25.5928L41.1784 25.1377V24.3283H41.1783ZM31.6722 33.149C32.2838 30.1651 34.9041 27.6845 38.5137 26.68V26.7057L41.9953 28.6399L45.4858 26.7067V26.68C49.096 27.6845 51.7165 30.1656 52.3276 33.1502L34.3791 33.148V33.149L31.6722 33.149Z" fill="#3B38C0"/>
<path d="M17.5693 71.9651V71.617C20.2297 70.3999 22.1153 67.8772 22.5257 64.9885C23.6472 64.5818 24.4381 63.4984 24.4381 62.2716C24.4381 61.2153 23.8676 60.2703 22.9846 59.7656C23.0765 59.478 23.1518 59.1879 23.2102 58.8983C23.6798 56.5686 23.1446 54.1876 21.7032 52.1938C20.285 50.2324 18.1536 48.8798 15.7012 48.3854C15.0419 48.2522 14.3693 48.1848 13.7025 48.1848C11.5991 48.1848 9.54688 48.8632 7.9239 50.0948C6.2524 51.363 5.10925 53.1647 4.70526 55.1683C4.39917 56.6874 4.52433 58.2548 5.06571 59.7249C4.14801 60.2182 3.54022 61.1879 3.54022 62.2718C3.54022 63.5147 4.3428 64.6019 5.48076 64.9994C5.9024 67.9569 7.84933 70.5036 10.5972 71.6907V71.9651C4.89024 73.2581 0.955078 77.5267 0.955078 82.5149V83.8476H5.92209V83.842H6.4735V83.8476H27.2118V82.5149C27.2118 77.5266 23.2767 73.2581 17.5693 71.9651ZM13.7025 50.8495C14.192 50.8495 14.6874 50.8992 15.1746 50.9975C16.9677 51.3589 18.5195 52.3382 19.5437 53.7552C20.4993 55.0763 20.8838 56.6301 20.6377 58.1537C19.3262 57.5419 17.6028 56.8948 15.7902 56.6467C12.3826 56.1807 12.3281 56.0223 12.1247 55.4335L11.4743 53.5508L9.97672 54.8757C9.71814 55.1034 8.56296 56.1166 7.22143 57.2278C7.18293 56.7165 7.21499 56.204 7.3177 55.6947C7.88368 52.8872 10.5688 50.8495 13.7025 50.8495ZM8.05695 59.9875C8.99089 59.232 9.91424 58.4509 10.5826 57.8779C11.5081 58.713 12.952 58.9481 15.4288 59.2868C17.1094 59.5165 18.7566 60.1893 19.9483 60.7804V63.7831C19.9483 67.0615 17.2811 69.7287 14.0028 69.7287C10.7242 69.7287 8.05695 67.0615 8.05695 63.7831V59.9875ZM13.2619 72.3606C13.8133 72.4092 14.3599 72.4034 14.9049 72.3458V73.1687L14.0809 73.625L13.2619 73.1698V72.3606H13.2619ZM5.43064 81.1814V81.1825H3.75536C4.36636 78.1978 6.98726 75.7169 10.5973 74.7124V74.7381L14.0789 76.6721L17.5693 74.7388V74.7124C21.1795 75.7169 23.8002 78.1978 24.4112 81.1825L6.46268 81.1802V81.1813L5.43064 81.1814Z" fill="#3B38C0"/>
<path d="M73.4025 71.9651V71.617C76.0629 70.3999 77.9485 67.8772 78.3588 64.9885C79.4804 64.5818 80.2712 63.4984 80.2712 62.2716C80.2712 61.2155 79.7008 60.2701 78.818 59.7656C78.9097 59.478 78.985 59.1881 79.0432 58.8983C79.513 56.5686 78.9779 54.1876 77.5362 52.1938C76.1184 50.2324 73.9868 48.8798 71.5344 48.3854C70.875 48.2522 70.2027 48.1848 69.5355 48.1848C67.4323 48.1848 65.3801 48.8632 63.7571 50.0948C62.0856 51.363 60.9426 53.1647 60.5387 55.1683C60.2324 56.6874 60.3575 58.2544 60.8989 59.7249C59.9813 60.2182 59.3735 61.1879 59.3735 62.2718C59.3735 63.5147 60.176 64.6019 61.3142 64.9994C61.7358 67.9571 63.6827 70.5038 66.4304 71.6907V71.9651C60.7233 73.2581 56.7881 77.5267 56.7881 82.5149V83.8476H61.7551V83.8452H62.3069V83.8476H83.0449V82.5149C83.0448 77.5266 79.1097 73.2581 73.4025 71.9651ZM69.5356 50.8495C70.025 50.8495 70.5204 50.8992 71.0079 50.9975C72.801 51.3589 74.3525 52.3382 75.3769 53.7552C76.3326 55.0763 76.7173 56.6304 76.4711 58.1537C75.1596 57.5419 73.4362 56.8948 71.6232 56.6467C68.2158 56.1807 68.1613 56.0223 67.9581 55.4333L67.3076 53.5508L65.8072 54.8781C65.5477 55.1067 64.3894 56.1221 63.0545 57.2278C63.0162 56.7165 63.0483 56.2038 63.151 55.6947C63.7168 52.8872 66.4017 50.8495 69.5356 50.8495ZM63.8901 59.9875C64.8269 59.2297 65.7488 58.4498 66.4157 57.8779C67.3413 58.713 68.785 58.9481 71.262 59.2868C72.9421 59.5165 74.5898 60.1893 75.7815 60.7804V63.7831C75.7815 67.0615 73.1145 69.7287 69.836 69.7287C66.5574 69.7287 63.8902 67.0615 63.8902 63.7831L63.8901 59.9875ZM69.095 72.3606C69.6458 72.4092 70.1932 72.4032 70.7378 72.3458V73.1687L69.9141 73.625L69.095 73.1698V72.3606ZM59.5887 81.1814C60.2004 78.1972 62.8206 75.7167 66.4304 74.7124V74.7381L69.912 76.6721L73.4025 74.7388V74.7124C77.0131 75.7167 79.6334 78.1978 80.2443 81.1825L62.2956 81.1802V81.1813L59.5887 81.1814Z" fill="#3B38C0"/>
</g>
<defs>
<clipPath id="clip0_84_2168">
<rect width="84" height="84" fill="white"/>
</clipPath>
</defs>
</svg>
