<svg width="84" height="84" viewBox="0 0 84 84" fill="none" xmlns="http://www.w3.org/2000/svg">
<g clip-path="url(#clip0_84_2176)">
<path d="M54.6249 52.2774L46.2999 51.0675L42.5779 43.5245C42.3318 43.0261 41.8243 42.7106 41.2684 42.7106C40.7128 42.7106 40.2052 43.0261 39.9592 43.5245L36.2363 51.0673L27.9116 52.2774C27.3616 52.3572 26.9048 52.7424 26.7331 53.2709C26.5614 53.7995 26.7046 54.3798 27.1026 54.7676L33.1265 60.6393L31.7044 68.9298C31.6104 69.4775 31.8356 70.0311 32.2852 70.3578C32.7348 70.6841 33.3308 70.7277 33.8226 70.469L41.2684 66.5546L48.714 70.469C48.9274 70.5812 49.1608 70.6367 49.3931 70.6367C49.6961 70.6367 49.9972 70.5425 50.2514 70.3578C50.7011 70.0311 50.9264 69.4775 50.8323 68.9298L49.4106 60.6391L55.4338 54.7676C55.8318 54.3796 55.9748 53.7995 55.8033 53.2709C55.6315 52.7423 55.1748 52.3572 54.6249 52.2774ZM46.8226 59.084C46.4784 59.4194 46.3216 59.9026 46.4026 60.3763L47.4544 66.5078L41.9478 63.6129C41.7351 63.5011 41.5019 63.4452 41.2685 63.4452C41.0351 63.4452 40.8019 63.5011 40.5892 63.6129L35.0824 66.5078L36.1343 60.3763C36.2155 59.9026 36.0585 59.4194 35.7143 59.084L31.2591 54.7415L37.4158 53.8465C37.8913 53.7775 38.3025 53.4788 38.5151 53.0481L41.2684 47.4694L44.0215 53.0479C44.2337 53.4788 44.6448 53.7775 45.1206 53.8465L51.2775 54.7415L46.8226 59.084Z" fill="#3B38C0"/>
<path d="M83.2817 1.08917C83.0218 0.632954 82.5374 0.351227 82.0127 0.351227H60.4396C59.9177 0.351227 59.4358 0.62964 59.1751 1.08165L42.6483 29.7334C42.212 29.7112 41.7732 29.7002 41.3318 29.6992L24.8246 1.08165C24.5639 0.62964 24.0818 0.351227 23.56 0.351227H1.98684C1.46198 0.351227 0.977625 0.632954 0.717925 1.08917C0.458411 1.54519 0.463545 2.10552 0.731551 2.55688L21.7993 38.0216C17.1524 42.8699 14.2931 49.4439 14.2931 56.6737C14.2931 71.5479 26.3942 83.6489 41.2683 83.6489C56.1422 83.6489 68.243 71.5479 68.243 56.6737C68.243 49.9157 65.7446 43.7305 61.6237 38.9924L83.2678 2.55688C83.5359 2.10552 83.5412 1.54519 83.2817 1.08917ZM4.55224 3.27121H22.7167L38.0703 29.8888C32.7481 30.5204 27.8964 32.7067 23.9834 35.9811L4.55224 3.27121ZM65.323 56.6737C65.323 69.9378 54.532 80.7289 41.2683 80.7289C28.0043 80.7289 17.2131 69.9379 17.2131 56.6737C17.2131 50.5187 19.5378 44.8973 23.3538 40.6386C24.0235 39.8911 24.7384 39.1851 25.4953 38.5264C29.3463 35.1748 34.2701 33.0274 39.6759 32.6724C40.1083 32.6441 40.5438 32.6272 40.9821 32.6221C41.0774 32.6209 41.1726 32.6184 41.2683 32.6184C41.8689 32.6184 42.4642 32.6412 43.0541 32.6848C43.4549 32.7141 43.8533 32.7539 44.2485 32.8029C49.5544 33.4616 54.3291 35.8553 57.9872 39.3963C58.7189 40.1046 59.4053 40.8584 60.0428 41.6536C63.3449 45.7725 65.323 50.996 65.323 56.6737ZM59.5148 36.825C55.7683 33.3778 51.0469 30.9758 45.8168 30.0839L61.2828 3.27121H79.4471L59.5148 36.825Z" fill="#3B38C0"/>
</g>
<defs>
<clipPath id="clip0_84_2176">
<rect width="84" height="84" fill="white"/>
</clipPath>
</defs>
</svg>
