<svg width="24" height="24" viewBox="0 0 24 24" fill="none" xmlns="http://www.w3.org/2000/svg">
<path fill-rule="evenodd" clip-rule="evenodd" d="M20.73 7.12012L20.59 6.87012C20.4094 6.56781 20.1547 6.31655 19.85 6.14012L13.14 2.27012C12.8362 2.09387 12.4913 2.00074 12.14 2.00012H11.85C11.4987 2.00074 11.1538 2.09387 10.85 2.27012L4.14 6.15012C3.83697 6.32538 3.58526 6.57709 3.41 6.88012L3.27 7.13012C3.09375 7.43396 3.00062 7.77886 3 8.13012V15.8801C3.00062 16.2314 3.09375 16.5763 3.27 16.8801L3.41 17.1301C3.58979 17.4296 3.84049 17.6803 4.14 17.8601L10.86 21.7301C11.1623 21.91 11.5082 22.0034 11.86 22.0001H12.14C12.4913 21.9995 12.8362 21.9064 13.14 21.7301L19.85 17.8501C20.156 17.6788 20.4087 17.4261 20.58 17.1201L20.73 16.8701C20.9041 16.5654 20.9971 16.2211 21 15.8701V8.12012C20.9994 7.76886 20.9063 7.42396 20.73 7.12012ZM11.85 4.00012H12.14L18 7.38012L12 10.8401L6 7.38012L11.85 4.00012ZM13 19.5001L18.85 16.1201L19 15.8701V9.11012L13 12.5801V19.5001Z" fill="white"/>
</svg>
