<svg width="84" height="84" viewBox="0 0 84 84" fill="none" xmlns="http://www.w3.org/2000/svg">
<g clip-path="url(#clip0_84_2180)">
<path d="M7.12739 24.6404C4.17493 24.6404 1.77295 22.2385 1.77295 19.2862C1.77295 16.3338 4.17498 13.9319 7.12739 13.9319C10.0796 13.9319 12.4814 16.3338 12.4814 19.2862C12.4814 22.2385 10.0796 24.6404 7.12739 24.6404ZM7.12739 16.8351C5.77583 16.8351 4.67618 17.9347 4.67618 19.2861C4.67618 20.6376 5.77578 21.7371 7.12739 21.7371C8.47876 21.7371 9.57818 20.6375 9.57818 19.2861C9.57818 17.9347 8.47876 16.8351 7.12739 16.8351Z" fill="#3B38C0"/>
<path d="M52.454 32.8381C49.5016 32.8381 47.0996 30.4364 47.0996 27.4843C47.0996 24.5318 49.5016 22.1299 52.454 22.1299C55.4063 22.1299 57.8081 24.5319 57.8081 27.4843C57.808 30.4364 55.4062 32.8381 52.454 32.8381ZM52.454 25.0331C51.1024 25.0331 50.0028 26.1327 50.0028 27.4843C50.0028 28.8356 51.1024 29.9349 52.454 29.9349C53.8054 29.9349 54.9048 28.8355 54.9048 27.4843C54.9048 26.1327 53.8054 25.0331 52.454 25.0331Z" fill="#3B38C0"/>
<path d="M29.791 18.2513C24.9499 18.2513 21.0112 14.3128 21.0112 9.47174C21.0112 4.63068 24.9499 0.6922 29.791 0.6922C34.6319 0.6922 38.5702 4.63068 38.5702 9.47174C38.5702 14.3128 34.6319 18.2513 29.791 18.2513ZM29.791 3.59543C26.5507 3.59543 23.9145 6.23153 23.9145 9.47174C23.9145 12.7119 26.5507 15.3481 29.791 15.3481C33.031 15.3481 35.6669 12.7119 35.6669 9.47174C35.6669 6.23153 33.031 3.59543 29.791 3.59543Z" fill="#3B38C0"/>
<path d="M75.1181 18.2513C70.277 18.2513 66.3384 14.3128 66.3384 9.47174C66.3384 4.63068 70.277 0.6922 75.1181 0.6922C79.959 0.6922 83.8975 4.63068 83.8975 9.47174C83.8975 14.3128 79.959 18.2513 75.1181 18.2513ZM75.1181 3.59543C71.8777 3.59543 69.2416 6.23153 69.2416 9.47174C69.2416 12.7119 71.8777 15.3481 75.1181 15.3481C78.3581 15.3481 80.9942 12.7119 80.9942 9.47174C80.9942 6.23153 78.3581 3.59543 75.1181 3.59543Z" fill="#3B38C0"/>
<path d="M23.5611 13.2221L22.2148 10.6498L10.3566 16.856L11.7028 19.4283L23.5611 13.2221Z" fill="#3B38C0"/>
<path d="M50.2751 24.6393L36.6714 13.2579L34.8084 15.4847L48.4121 26.866L50.2751 24.6393Z" fill="#3B38C0"/>
<path d="M56.753 27.2944L54.9263 25.0378L68.7454 13.8526L70.5721 16.1092L56.753 27.2944Z" fill="#3B38C0"/>
<path d="M10.4222 83.3078H3.83223C1.77573 83.3078 0.102539 81.6115 0.102539 79.5267V35.558C0.102539 33.4731 1.77573 31.7769 3.83223 31.7769H10.4222C12.4787 31.7769 14.1519 33.4731 14.1519 35.558V79.5267C14.1519 81.6115 12.4787 83.3078 10.4222 83.3078ZM3.83223 34.6801C3.37644 34.6801 3.00577 35.0739 3.00577 35.558V79.5267C3.00577 80.0106 3.37644 80.4046 3.83223 80.4046H10.4222C10.878 80.4046 11.2486 80.0107 11.2486 79.5267V35.558C11.2486 35.0739 10.8779 34.6801 10.4222 34.6801H3.83223Z" fill="#3B38C0"/>
<path d="M33.0853 83.3078H26.4951C24.4387 83.3078 22.7656 81.4953 22.7656 79.2675V30.4039C22.7656 28.176 24.4387 26.3635 26.4951 26.3635H33.0853C35.1417 26.3635 36.8147 28.176 36.8147 30.4039V79.2675C36.8148 81.4953 35.1417 83.3078 33.0853 83.3078ZM26.4951 29.2668C26.0472 29.2668 25.6688 29.7876 25.6688 30.4039V79.2675C25.6688 79.8839 26.0472 80.4046 26.4951 80.4046H33.0853C33.5331 80.4046 33.9115 79.8839 33.9115 79.2675V30.4039C33.9115 29.7875 33.5331 29.2668 33.0853 29.2668L26.4951 29.2668Z" fill="#3B38C0"/>
<path d="M55.7489 83.3078H49.1591C47.1024 83.3078 45.4292 81.8329 45.4292 80.02V45.3617C45.4292 43.5488 47.1024 42.0739 49.1591 42.0739H55.7489C57.8056 42.0739 59.4788 43.5488 59.4788 45.3617V80.02C59.4788 81.8329 57.8056 83.3078 55.7489 83.3078ZM49.1591 44.9771C48.6257 44.9771 48.3324 45.2659 48.3324 45.3617V80.02C48.3324 80.1158 48.6257 80.4046 49.1591 80.4046H55.7489C56.2823 80.4046 56.5755 80.1158 56.5755 80.02V45.3617C56.5755 45.2659 56.2823 44.9771 55.7489 44.9771H49.1591Z" fill="#3B38C0"/>
<path d="M78.4125 83.3078H71.8222C69.7658 83.3078 68.0928 81.4953 68.0928 79.2675V30.4039C68.0928 28.176 69.7658 26.3635 71.8222 26.3635H78.4125C80.4691 26.3635 82.1423 28.176 82.1423 30.4039V79.2675C82.1423 81.4953 80.4691 83.3078 78.4125 83.3078ZM71.8222 29.2668C71.3743 29.2668 70.996 29.7876 70.996 30.4039V79.2675C70.996 79.8839 71.3743 80.4046 71.8222 80.4046H78.4125C78.8606 80.4046 79.2391 79.8839 79.2391 79.2675V30.4039C79.2391 29.7875 78.8606 29.2668 78.4125 29.2668L71.8222 29.2668Z" fill="#3B38C0"/>
</g>
<defs>
<clipPath id="clip0_84_2180">
<rect width="84" height="84" fill="white"/>
</clipPath>
</defs>
</svg>
