<svg width="84" height="84" viewBox="0 0 84 84" fill="none" xmlns="http://www.w3.org/2000/svg">
<g clip-path="url(#clip0_84_2205)">
<path d="M75.9705 17.9201C75.4044 17.1238 74.8106 16.3487 74.1917 15.5953C66.546 6.29094 54.9546 0.345978 42.0003 0.345978C29.0458 0.345978 17.4543 6.29094 9.80842 15.5953C9.18915 16.3487 8.59565 17.1238 8.02939 17.9201C3.19305 24.7235 0.346191 33.0356 0.346191 41.9999C0.346191 51.0156 3.22641 59.3715 8.11372 66.1961C8.68277 66.9904 9.27791 67.7647 9.89998 68.5157C17.5463 77.7567 29.0972 83.654 42.0003 83.654C54.9031 83.654 66.4542 77.7567 74.1003 68.5157C74.7222 67.7647 75.3176 66.9904 75.8864 66.1961C80.7735 59.3715 83.6539 51.0156 83.6539 41.9999C83.6539 33.0356 80.8073 24.7235 75.9705 17.9201ZM71.8043 17.2989C71.1412 17.7253 70.4455 18.141 69.714 18.5434C67.542 19.7381 65.1549 20.773 62.602 21.6412C61.6059 18.4759 60.3704 15.5287 58.9112 12.8757C57.0721 9.5311 54.9644 6.81095 52.6685 4.76867C60.2525 6.9453 66.891 11.3811 71.8043 17.2989ZM63.4548 30.0104C63.8751 30.0104 64.273 30.1048 64.6322 30.2698C65.6081 30.718 66.289 31.7023 66.289 32.8448C66.289 33.7299 65.8808 34.521 65.2431 35.0411C64.7549 35.439 64.1324 35.6788 63.4548 35.6788C63.06 35.6788 62.6843 35.5977 62.3426 35.4511C61.3312 35.0178 60.6202 34.013 60.6202 32.8447C60.6202 31.9336 61.0543 31.1235 61.7243 30.6047C62.2037 30.2337 62.803 30.0104 63.4548 30.0104ZM43.4637 3.37156C48.2703 4.01752 52.799 7.83518 56.3466 14.2862C57.7126 16.7696 58.8708 19.5333 59.8077 22.5059C54.7907 23.9107 49.2401 24.705 43.4637 24.8198V3.37156ZM43.4637 27.7471C49.5084 27.631 55.3322 26.7969 60.6126 25.3178C60.8031 26.0572 60.9802 26.8081 61.1446 27.5687C59.115 28.4606 57.6936 30.4895 57.6936 32.8448C57.6936 35.7158 59.8045 38.1021 62.5558 38.535C62.5887 39.2289 62.612 39.9273 62.6251 40.6285H47.5948C47.0936 38.5824 45.4965 36.9623 43.4637 36.4278V27.7471ZM60.568 58.8535C55.2995 57.3817 49.4911 56.5523 43.4637 56.4367V47.572C45.4354 47.0539 46.9964 45.5142 47.5462 43.5553H62.6213C62.5074 48.935 61.8047 54.1175 60.568 58.8535ZM61.1675 69.4751C61.1673 71.0381 59.8959 72.3095 58.3333 72.3095C58.2994 72.3095 58.2669 72.3055 58.2333 72.3043C57.1528 72.2662 56.2262 71.6224 55.7816 70.7011C55.6021 70.3297 55.4987 69.9148 55.4987 69.4751C55.4987 68.0776 56.5159 66.9166 57.8478 66.6853C58.0058 66.6575 58.1675 66.6407 58.3331 66.6407C59.2463 66.6407 60.0575 67.0764 60.5763 67.7491C60.9455 68.2282 61.1675 68.8253 61.1675 69.4751ZM40.5369 3.37156V24.8198C34.76 24.705 29.2096 23.9106 24.1922 22.5063C24.4142 21.8019 24.6488 21.1092 24.8953 20.4297C25.0138 20.4369 25.1327 20.4417 25.2528 20.4417C28.4293 20.4417 31.0139 17.8571 31.0139 14.6805C31.0139 13.2896 30.5184 12.0126 29.6951 11.016C32.8677 6.54653 36.6093 3.89927 40.5369 3.37156ZM23.3878 25.3178C28.6679 26.7973 34.4921 27.631 40.5369 27.7471V36.4278C38.5036 36.9623 36.9069 38.5823 36.4053 40.6285H21.375C21.4755 35.2475 22.1645 30.0614 23.3878 25.3178ZM22.4184 14.6805C22.4184 13.1175 23.6898 11.8461 25.2528 11.8461C25.3909 11.8461 25.5255 11.8593 25.6584 11.8784C26.7266 12.0326 27.6025 12.782 27.9382 13.7806C28.0334 14.0636 28.0872 14.3657 28.0872 14.6805C28.0872 15.9389 27.2623 17.0073 26.125 17.376C25.8499 17.4656 25.5572 17.515 25.2528 17.515C24.4653 17.515 23.7525 17.1917 23.2384 16.6717C22.732 16.1592 22.4184 15.456 22.4184 14.6805ZM31.332 4.76872C29.9168 6.02727 28.5731 7.54287 27.3206 9.30467C26.678 9.05669 25.9813 8.91934 25.2528 8.91934C22.0762 8.91934 19.4915 11.5038 19.4915 14.6806C19.4915 16.7018 20.5389 18.482 22.1179 19.5105C21.8661 20.2089 21.6256 20.9193 21.3983 21.6413C18.8454 20.7731 16.4583 19.7382 14.2861 18.5435C13.5548 18.1411 12.8589 17.7254 12.1958 17.299C17.109 11.3811 23.7476 6.9453 31.332 4.76872ZM10.4068 19.6261C11.1883 20.1369 12.01 20.6317 12.8758 21.108C15.2327 22.4043 17.8226 23.5231 20.5903 24.4552C19.2836 29.4759 18.5503 34.9556 18.4479 40.6285H3.29828C3.57137 32.8247 6.16361 25.6001 10.4068 19.6261ZM21.6951 48.9495C22.4598 49.4575 22.9653 50.3257 22.9653 51.3112C22.9653 52.034 22.6911 52.6927 22.2437 53.1938C21.7244 53.7762 20.971 54.1452 20.1317 54.1452H20.1313C19.8855 54.1452 19.6482 54.1103 19.4201 54.0512C18.2009 53.7344 17.2969 52.6276 17.2969 51.3112C17.2969 50.251 17.8825 49.3262 18.7466 48.8402C19.1563 48.6097 19.6281 48.4764 20.1313 48.4764C20.7092 48.4764 21.2465 48.6515 21.6951 48.9495ZM3.30392 43.5553H18.4519C18.4667 44.2994 18.4929 45.0408 18.5294 45.7781C16.1299 46.4736 14.3701 48.6897 14.3701 51.3112C14.3701 54.4436 16.8845 56.9989 20.0012 57.0684C20.1952 57.9627 20.4064 58.845 20.6349 59.7133C17.8503 60.6486 15.2456 61.7726 12.8762 63.0758C12.0433 63.5336 11.2514 64.0091 10.4968 64.499C6.23389 58.5471 3.61314 51.3437 3.30392 43.5553ZM12.2963 66.8194C12.9292 66.4158 13.5918 66.0223 14.2862 65.6403C16.4736 64.4372 18.8787 63.3962 21.4513 62.5244C22.4384 65.6267 23.6553 68.5181 25.089 71.124C26.9286 74.4688 29.0362 77.1896 31.3325 79.2321C23.7994 77.07 17.1993 72.6778 12.2963 66.8194ZM40.5369 80.6285C35.7298 79.9823 31.2011 76.1648 27.6535 69.7141C26.3133 67.2776 25.1737 64.5709 24.2464 61.6626C29.2494 60.2667 34.7809 59.4783 40.5369 59.3635V80.6285ZM40.5369 56.4367C34.509 56.5523 28.7004 57.3816 23.432 58.8534C23.2211 58.0451 23.026 57.2234 22.8464 56.3905C24.6576 55.4183 25.8921 53.5059 25.8921 51.3112C25.8921 48.59 23.9958 46.305 21.4557 45.705C21.4192 44.9925 21.3943 44.2753 21.3786 43.5553H36.4539C37.0041 45.5143 38.5651 47.054 40.5369 47.572V56.4367ZM40.5369 44.4227C40.1754 44.2035 39.8658 43.9075 39.6333 43.5553C39.3386 43.1083 39.1659 42.5746 39.1659 41.9999C39.1659 41.5027 39.2956 41.0353 39.5217 40.6284C39.7622 40.1951 40.114 39.8333 40.5369 39.5771C40.9646 39.3176 41.4645 39.1655 42.0003 39.1655C42.536 39.1655 43.0356 39.3176 43.4637 39.5771C43.8865 39.8333 44.2383 40.1951 44.4789 40.6284C44.705 41.0352 44.8347 41.5027 44.8347 41.9999C44.8347 42.5746 44.6616 43.1083 44.3669 43.5553C44.1347 43.9075 43.8251 44.2035 43.4637 44.4227C43.0356 44.6822 42.536 44.8343 42.0003 44.8343C41.4645 44.8343 40.9646 44.6822 40.5369 44.4227ZM43.4637 80.6285V59.3635C49.2196 59.4783 54.7509 60.2666 59.7539 61.6626C59.5272 62.373 59.2891 63.073 59.0373 63.7589C58.8062 63.73 58.5715 63.7139 58.3327 63.7139C55.1563 63.7139 52.5719 66.2985 52.5719 69.4751C52.5719 70.9566 53.1344 72.3091 54.0568 73.3312C50.9378 77.5912 47.2888 80.1144 43.4637 80.6285ZM52.6677 79.2321C54.0174 78.0314 55.3013 76.5953 56.5045 74.9371C57.0794 75.1299 57.694 75.2363 58.3333 75.2363C61.5095 75.2363 64.0941 72.6516 64.0943 69.4751C64.0941 67.5788 63.1729 65.8942 61.7544 64.8436C62.0344 64.0854 62.2984 63.3111 62.5486 62.5244C65.1216 63.3963 67.5267 64.4372 69.714 65.6404C70.4083 66.0223 71.0711 66.4158 71.7041 66.8198C66.8008 72.6782 60.201 77.07 52.6677 79.2321ZM73.5033 64.499C72.7488 64.0091 71.9568 63.5336 71.1243 63.0758C68.755 61.7726 66.15 60.6486 63.3652 59.7133C64.6852 54.701 65.4326 49.2261 65.5484 43.5553H80.6964C80.7167 43.0397 80.7271 42.5208 80.7271 41.9999C80.7271 42.0003 80.7271 42.0003 80.7271 42.0003C80.7271 42.5208 80.7167 43.0393 80.6964 43.5553C80.387 51.3437 77.7662 58.5471 73.5033 64.499ZM80.7019 40.6284H65.5523C65.5378 39.8284 65.5109 39.0321 65.4714 38.2406C67.6562 37.4209 69.2158 35.3122 69.2158 32.8448C69.2158 29.8654 66.9422 27.4069 64.0391 27.1129C63.8467 26.2142 63.6371 25.3279 63.41 24.4552C66.1778 23.5231 68.7674 22.4043 71.1242 21.1079C71.9902 20.6317 72.8118 20.1365 73.5935 19.6261C77.8365 25.6001 80.429 32.8243 80.7019 40.6284Z" fill="#3B38C0"/>
</g>
<defs>
<clipPath id="clip0_84_2205">
<rect width="84" height="84" fill="white"/>
</clipPath>
</defs>
</svg>
